<?xml version="1.0" encoding="iso-8859-1"?>
<!-- Uploaded to: SVG Repo, www.svgrepo.com, Generator: SVG Repo Mixer Tools -->
<svg height="800px" width="800px" version="1.1" id="Layer_1" xmlns="http://www.w3.org/2000/svg" xmlns:xlink="http://www.w3.org/1999/xlink" 
	 viewBox="0 0 500.8 500.8" xml:space="preserve">
<path style="fill:#C16A02;" d="M75.877,278.4c-3.2,9.6-13.6,15.2-23.2,12.8c-9.6-3.2-15.2-13.6-12.8-23.2"/>
<polygon style="fill:#EAAC0F;" points="234.277,402.4 244.677,398.4 255.077,402.4 246.277,460.8 244.677,473.6 234.277,488 "/>
<polygon style="fill:#FFC114;" points="234.277,350.4 251.077,347.2 267.877,350.4 259.077,409.6 251.077,421.6 234.277,409.6 "/>
<polygon style="fill:#C16A02;" points="263.077,498.4 234.277,498.4 234.277,477.6 255.077,485.6 "/>
<polygon style="fill:#EAAC0F;" points="66.277,402.4 77.477,398.4 88.677,402.4 80.677,460.8 77.477,473.6 66.277,488 "/>
<polygon style="fill:#FFC114;" points="66.277,342.4 83.877,347.2 101.477,350.4 93.477,409.6 83.877,421.6 66.277,409.6 "/>
<polygon style="fill:#C16A02;" points="98.277,498.4 66.277,498.4 66.277,477.6 88.677,485.6 "/>
<polygon style="fill:#FFC114;" points="295.877,274.4 217.477,274.4 266.277,42.4 298.277,42.4 "/>
<g>
	<polygon style="fill:#C16A02;" points="266.277,23.2 277.477,26.4 271.077,1.6 266.277,0 	"/>
	<polygon style="fill:#C16A02;" points="282.277,26.4 291.877,29.6 286.277,4.8 282.277,4 	"/>
</g>
<g>
	<polygon style="fill:#EAAC0F;" points="297.477,270.4 267.077,268.8 271.077,42.4 298.277,42.4 	"/>
	<path style="fill:#EAAC0F;" d="M154.277,346.4h-60c-22.4,0-40-17.6-40-40l0,0c0-22.4,17.6-40,40-40h20"/>
</g>
<path style="fill:#FFD215;" d="M154.277,346.4h-60c-22.4,0-40-17.6-40-40l0,0"/>
<path style="fill:#FFC114;" d="M297.477,266.4c0,56-44.8,100.8-100.8,100.8c-55.2,0-100.8-44.8-100.8-100.8H297.477z"/>
<path style="fill:#EAAC0F;" d="M194.277,266.4v100c57.6,2.4,103.2-44,103.2-100H194.277z"/>
<path style="fill:#FFC114;" d="M194.277,266.4v68.8c40,0,72.8-28.8,72.8-68.8H194.277z"/>
<g>
	<path style="fill:#EAAC0F;" d="M194.277,266.4v43.2c24,0,46.4-19.2,46.4-43.2H194.277z"/>
	<path style="fill:#EAAC0F;" d="M258.277,26.4h-25.6c0,16,9.6,24.8,25.6,24.8V26.4z"/>
</g>
<circle style="fill:#FF9A15;" cx="248.677" cy="342.4" r="26.4"/>
<path style="fill:#EA840A;" d="M267.877,324c10.4,10.4,10.4,27.2,0,36.8c-10.4,10.4-27.2,10.4-36.8,0"/>
<circle style="fill:#FF9A15;" cx="86.277" cy="342.4" r="26.4"/>
<path style="fill:#EA840A;" d="M104.677,324c10.4,10.4,10.4,27.2,0,36.8c-10.4,10.4-27.2,10.4-36.8,0"/>
<g>
	<circle style="fill:#C16A02;" cx="120.677" cy="288" r="6.4"/>
	<circle style="fill:#C16A02;" cx="147.877" cy="288" r="6.4"/>
	<circle style="fill:#C16A02;" cx="175.877" cy="288" r="6.4"/>
	<path style="fill:#C16A02;" d="M127.077,311.2c0,3.2-3.2,6.4-6.4,6.4s-6.4-3.2-6.4-6.4s3.2-6.4,6.4-6.4S127.077,308,127.077,311.2z
		"/>
	<path style="fill:#C16A02;" d="M154.277,311.2c0,3.2-3.2,6.4-6.4,6.4s-6.4-3.2-6.4-6.4c0-3.2,3.2-6.4,6.4-6.4
		S154.277,308,154.277,311.2z"/>
	<path style="fill:#C16A02;" d="M182.277,311.2c0,3.2-3.2,6.4-6.4,6.4s-6.4-3.2-6.4-6.4c0-3.2,3.2-6.4,6.4-6.4
		S182.277,308,182.277,311.2z"/>
</g>
<polygon style="fill:#FFC114;" points="329.477,66.4 266.277,66.4 266.277,29.6 323.877,46.4 "/>
<polyline style="fill:#EAAC0F;" points="323.077,47.2 329.477,66.4 274.277,66.4 "/>
<polygon style="fill:#51D687;" points="435.877,106.4 410.277,48 435.877,16.8 461.477,48 "/>
<polyline style="fill:#2CAF61;" points="435.877,16.8 461.477,48 435.877,106.4 "/>
<polygon style="fill:#CCAF89;" points="456.677,488 435.877,500.8 415.077,488 435.877,119.2 "/>
<polygon style="fill:#BC9B73;" points="456.677,488 435.877,500.8 434.277,486.4 435.877,119.2 "/>
<polygon style="fill:#51D687;" points="429.477,110.4 370.277,88 366.277,48 406.277,51.2 "/>
<polyline style="fill:#2CAF61;" points="366.277,48 406.277,51.2 429.477,110.4 "/>
<polygon style="fill:#51D687;" points="424.677,118.4 367.077,144 335.877,118.4 367.077,92.8 "/>
<polyline style="fill:#2CAF61;" points="335.877,118.4 367.077,92.8 424.677,118.4 "/>
</svg>